<?xml version="1.0" encoding="UTF-8" standalone="no"?>
<!-- Created with Inkscape (http://www.inkscape.org/) -->

<svg
   version="1.1"
   id="svg2"
   width="261"
   height="261"
   viewBox="0 0 261 261"
   sodipodi:docname="btc_qr_unbt.png"
   xmlns:inkscape="http://www.inkscape.org/namespaces/inkscape"
   xmlns:sodipodi="http://sodipodi.sourceforge.net/DTD/sodipodi-0.dtd"
   xmlns="http://www.w3.org/2000/svg"
   xmlns:svg="http://www.w3.org/2000/svg">
  <defs
     id="defs6" />
  <sodipodi:namedview
     id="namedview4"
     pagecolor="#ffffff"
     bordercolor="#000000"
     borderopacity="0.25"
     inkscape:showpageshadow="2"
     inkscape:pageopacity="0.0"
     inkscape:pagecheckerboard="0"
     inkscape:deskcolor="#d1d1d1"
     showgrid="false"
     inkscape:zoom="1.8007663"
     inkscape:cx="130.77766"
     inkscape:cy="130.5"
     inkscape:window-width="1360"
     inkscape:window-height="699"
     inkscape:window-x="0"
     inkscape:window-y="0"
     inkscape:window-maximized="1"
     inkscape:current-layer="g8" />
  <g
     inkscape:groupmode="layer"
     inkscape:label="Image"
     id="g8"
     transform="translate(0.27976149,0.24725731)">
    <path
       style="fill:#000000"
       d="m -0.2797615,229.25275 v -31.5 h 31.5000005 31.5 v 31.5 31.5 h -31.5 -31.5000005 z m 54.0000005,0 v -22.5 h -22.5 -22.500001 v 22.5 22.5 h 22.500001 22.5 z m -36.000001,0 v -13.5 h 13.500001 13.5 v 13.5 13.5 h -13.5 -13.500001 z m 54.000001,27 v -4.5 h 9.000004 9 v 4.5 4.5 h -9 -9.000004 z m 27.000001,-9 v -13.5 h 4.5 4.5 v -4.5 -4.5 h -4.5 -4.5 v -9 -9 h -4.5 -4.499997 v -9 -9 h -4.5 -4.5 v 4.5 4.5 h -4.500004 -4.5 v -9 -9 h 4.5 4.500004 v -4.5 -4.5 h 4.5 4.5 v -4.5 -4.5 h -4.5 -4.5 v -4.5 -4.5 h 4.5 4.5 v -4.5 -4.5 h -4.5 -4.5 v -9 -9 h 4.5 4.5 v -4.5 -4.5 h 4.499997 4.5 v 4.5 4.5 h -4.5 -4.499997 v 4.5 4.5 h 4.499997 4.5 v 13.5 13.5 h 22.5 22.5 v 4.5 4.5 h -9 -9 v 4.5 4.5 h 13.5 13.5 v 4.5 4.5 h -13.5 -13.5 v -4.5 -4.5 h -9 -9 v 4.5 4.5 h 4.5 4.5 v 4.5 4.5 h -4.5 -4.5 v -4.5 -4.5 h -4.5 -4.5 v 9 9 h 9 9 v 9 9 h 9 9 v -4.5 -4.5 h -4.5 -4.5 v -4.5 -4.5 h 4.5 4.5 v -4.5 -4.5 h 4.5 4.5 v 4.5 4.5 h 4.5 4.5 v 4.5 4.5 h 4.5 4.5 v 9 9 h 4.5 4.5 v 4.5 4.5 h 9 9 v 4.5 4.5 h 4.5 4.5 v 4.5 4.5 h -4.5 -4.5 v -4.5 -4.5 h -4.5 -4.5 v 4.5 4.5 h -4.5 -4.5 v -4.5 -4.5 h -4.5 -4.5 v 4.5 4.5 h -4.5 -4.5 v -4.5 -4.5 h 4.5 4.5 v -4.5 -4.5 h -9 -9 v 4.5 4.5 h -4.5 -4.5 v 4.5 4.5 h -18 -18 z m 36,0 v -4.5 h -4.5 -4.5 v -4.5 -4.5 h -9 -9 v 9 9 h 13.5 13.5 z m 18,-18 v -4.5 h -9 -9 v 4.5 4.5 h 9 9 z m -54,-54 v -4.5 h -4.5 -4.499997 v 4.5 4.5 h 4.499997 4.5 z m 108,72 v -4.5 h -4.5 -4.5 v -4.5 -4.5 h -9 -9 v -13.5 -13.5 h -4.5 -4.5 v -9 -9 h 4.5 4.5 v -4.5 -4.5 h -9 -9 v -9 -9 h 4.5 4.5 v 4.5 4.5 h 13.5 13.5 v 4.5 4.5 h 9 9 v -4.5 -4.5 h -4.5 -4.5 v -4.5 -4.5 h -4.5 -4.5 v -4.5 -4.5 h -4.5 -4.5 v 4.5 4.5 h -4.5 -4.5 v -4.5 -4.5 h -4.5 -4.5 v -4.5 -4.5 h 13.5 13.5 v -4.5 -4.5 h 4.5 4.5 v -4.5 -4.5 h -4.5 -4.5 v -4.5 -4.5 h 4.5 4.5 v -4.5 -4.5 h -4.5 -4.5 v -4.50001 -4.5 h -4.5 -4.5 v 4.5 4.50001 h -9 -9 v -4.50001 -4.5 h -4.5 -4.5 v -4.499998 -4.5 h 4.5 4.5 v -4.5 -4.5 h 4.5 4.5 v -4.5 -4.5 h -9 -9 v 4.5 4.5 h -4.5 -4.5 v -4.5 -4.5 h -4.5 -4.5 v -9 -9 h 4.5 4.5 v 9 9 h 4.5 4.5 v -13.5 -13.5 h 4.5 4.5 v 9 9 h 4.5 4.5 v -13.5 -13.5 h 4.5 4.5 v 13.5 13.5 h -4.5 -4.5 v 4.5 4.5 h 4.5 4.5 v 4.5 4.5 h 4.5 4.5 v -4.5 -4.5 h 22.5 22.5 v 4.5 4.5 h 4.5 4.5 v 4.5 4.5 h -4.5 -4.5 v 4.5 4.499998 h 9 9 v 13.50001 13.5 h -4.5 -4.5 v -4.5 -4.5 h -9 -9 v 4.5 4.5 h -9 -9 v 4.5 4.5 h -4.5 -4.5 v 4.5 4.5 h -4.5 -4.5 v 4.5 4.5 h 9 9 v -4.5 -4.5 h 4.5 4.5 v -4.5 -4.5 h 4.5 4.5 v 13.5 13.5 h 4.5 4.5 v -13.5 -13.5 h 9 9 v 4.5 4.5 h -4.5 -4.5 v 9 9 h -4.5 -4.5 v 4.5 4.5 h -4.5 -4.5 v 22.5 22.5 h 4.5 4.5 v -9 -9 h 4.5 4.5 v -4.5 -4.5 h -4.5 -4.5 v -4.5 -4.5 h 4.5 4.5 v -4.5 -4.5 h 4.5 4.5 v 4.5 4.5 h -4.5 -4.5 v 4.5 4.5 h 4.5 4.5 v 4.5 4.5 h -4.5 -4.5 v 4.5 4.5 h 4.5 4.5 v 4.5 4.5 h -4.5 -4.5 v 4.5 4.5 h 4.5 4.5 v 4.5 4.5 h -4.5 -4.5 v 9 9 h -4.5 -4.5 v -4.5 -4.5 h -4.5 -4.5 v 4.5 4.5 h -4.5 -4.5 v -4.5 -4.5 h -4.5 -4.5 v 4.5 4.5 h -4.5 -4.5 z m 27,-9 v -4.5 h -4.5 -4.5 v 4.5 4.5 h 4.5 4.5 z m -18,-9 v -4.5 h -9 -9 v 4.5 4.5 h 9 9 z m 18,-9 v -4.5 h -4.5 -4.5 v 4.5 4.5 h 4.5 4.5 z m -18,-18 v -13.5 h -13.5 -13.5 v 13.5 13.5 h 13.5 13.5 z m -18,0 v -4.5 h 4.5 4.5 v 4.5 4.5 h -4.5 -4.5 z m 36,-36 v -4.5 h -4.5 -4.5 v 4.5 4.5 h 4.5 4.5 z m 9,-63.00001 v -4.5 h -9 -9 v -4.499998 -4.5 h -13.5 -13.5 v 4.5 4.499998 h 13.5 13.5 v 4.5 4.50001 h 9 9 z m -63,-8.999998 v -4.5 h 4.5 4.5 v -4.5 -4.5 h -4.5 -4.5 v 4.5 4.5 h -4.5 -4.5 v 4.5 4.499998 h 4.5 4.5 z m 63,-9 v -4.5 h -4.5 -4.5 v 4.5 4.5 h 4.5 4.5 z M 71.720239,224.75275 v -18 h 4.5 4.500004 v 4.5 4.5 h 4.5 4.5 v 9 9 h -4.5 -4.5 v 4.5 4.5 h -4.500004 -4.5 z m -72.0000005,-58.5 v -22.5 h 4.4999995 4.5 v 22.5 22.5 h -4.5 -4.4999995 z m 26.9999995,18 v -4.5 h -4.5 -4.5 v -18 -18 h 4.5 4.5 v 4.5 4.5 h 4.500001 4.5 v 4.5 4.5 h -4.5 -4.500001 v 9 9 h 4.500001 4.5 v -4.5 -4.5 h 4.5 4.5 v -9 -9 h 4.5 4.5 v -4.5 -4.5 h -9 -9 v -4.5 -4.5 h -4.5 -4.500001 v -4.5 -4.5 h -4.5 -4.5 v 4.5 4.5 h -4.5 -4.5 v -4.5 -4.5 h -4.5 -4.4999995 v -4.5 -4.5 h 8.9999995 9 v -9 -9.00001 h -4.5 -4.5 v 4.5 4.50001 h -4.5 -4.4999995 v -9.00001 -8.999998 h 8.9999995 9 v -9 -9 h 22.500001 22.5 v 4.5 4.5 h -9 -9 v 9 8.999998 h 4.5 4.5 v -4.499998 -4.5 h 4.5 4.5 v 4.5 4.499998 h -4.5 -4.5 v 4.5 4.50001 h 4.5 4.5 v 4.5 4.5 h 4.5 4.5 v 4.5 4.5 h -4.5 -4.5 v 4.5 4.5 h -4.5 -4.5 v 4.5 4.5 h 9 9 v 9 9 h -4.5 -4.5 v 4.5 4.5 h -4.5 -4.5 v 4.5 4.5 h 4.5 4.5 v 4.5 4.5 h -4.5 -4.5 v -4.5 -4.5 h -4.5 -4.5 v 4.5 4.5 h -9 -9.000001 z m 36.000001,-27 v -4.5 h -4.5 -4.5 v 4.5 4.5 h 4.5 4.5 z m -9,-27 v -4.5 h 4.5 4.5 v -4.5 -4.5 h -13.5 -13.5 v 9 9 h 9 9 z M 26.720238,94.252742 v -4.5 h 4.500001 4.5 v -4.5 -4.5 h -4.5 -4.500001 v 4.5 4.5 h -4.5 -4.5 v 4.5 4.499998 h 4.5 4.5 z m 93.492722,59.148698 c -5.52613,-2.57339 -10.91354,-8.07953 -13.28323,-13.57596 -2.02837,-4.70477 -1.94706,-15.51361 0.1526,-20.2855 4.23885,-9.63364 13.65039,-15.77682 24.13791,-15.75551 14.87983,0.0302 25.48046,10.83383 25.48046,25.96828 0,15.13445 -10.60063,25.93803 -25.48046,25.96827 -4.20633,0.009 -7.4969,-0.68488 -11.00728,-2.31958 z m 14.05253,-10.64869 c 2.99593,0 8.45475,-4.6194 8.45475,-7.15464 0,-1.08726 -0.44054,-2.80001 -0.97899,-3.8061 -0.71119,-1.32887 -0.57441,-2.16501 0.5,-3.0567 2.45292,-2.03574 1.76356,-5.71229 -1.52725,-8.14529 -2.08179,-1.53914 -2.82936,-2.77989 -2.43105,-4.03487 0.72606,-2.2876 -2.02216,-3.4959 -4.07544,-1.79183 -1.2085,1.00296 -1.48727,0.94127 -1.48727,-0.32911 0,-2.59765 -2.17135,-3.10125 -3.88721,-0.90156 -0.88704,1.13715 -2.73779,2.22505 -4.11279,2.41756 -1.62463,0.22746 -2.3602,0.86693 -2.10073,1.82628 1.90652,7.04924 0.21389,15.97626 -3.02923,15.97626 -2.32134,0 -2.61891,4.49865 -0.35503,5.36739 0.83325,0.31975 1.94711,1.71789 2.47525,3.10698 0.97344,2.56036 4.00974,3.54712 4.00974,1.30312 0,-0.67237 0.75534,-0.1441 1.67853,1.17394 l 1.67854,2.39644 1.44344,-2.17393 c 0.79389,-1.19567 2.47902,-2.17394 3.74474,-2.17394 z m -3.90322,-6.18045 c -1.83442,-1.0266 -2.20646,-4.35268 -0.59805,-5.34673 1.36845,-0.84575 5.95602,2.18407 5.95602,3.9336 0,1.74906 -3.2337,2.60193 -5.35797,1.41313 z m 0.35797,-11.11955 c 0,-1.92059 2.04261,-3.62088 3.62186,-3.01487 0.75797,0.29087 1.37814,1.3807 1.37814,2.42186 0,1.35254 -0.71376,1.89301 -2.5,1.89301 -1.38462,0 -2.5,-0.58 -2.5,-1.3 z m 31,0.3 v -9 h 4.5 4.5 v 9 9 h -4.5 -4.5 z m 18,-4.5 v -4.5 h 4.5 4.5 v 4.5 4.5 h -4.5 -4.5 z M 71.720239,103.25274 v -4.5 h 4.5 4.500004 v -4.499998 -4.5 h -4.500004 -4.5 v -4.5 -4.5 h 9.000004 9 v -4.5 -4.5 h 4.499997 4.5 v -4.5 -4.5 h -4.5 -4.499997 v -18 -18 h 8.999997 9 v -4.5 -4.5 h -13.5 -13.499997 v 27 27 h -4.500004 -4.5 v -27 -27 h 4.5 4.500004 v -4.5 -4.5 h 9 8.999997 v -4.4999993 -4.5 h 22.5 22.5 v 4.5 4.4999993 h 4.5 4.5 v -4.4999993 -4.5 h 18 18 v 13.4999993 13.5 h -4.5 -4.5 v -9 -9 h -4.5 -4.5 v 9 9 h -4.5 -4.5 v -4.5 -4.5 h -9 -9 v 9 9 h 4.5 4.5 v 4.5 4.5 h -9 -9 v -4.5 -4.5 h -4.5 -4.5 v -4.5 -4.5 h -9 -9 v 9 9 h 4.5 4.5 v 13.5 13.5 h -4.5 -4.5 v 4.5 4.5 h 18 18 v 4.5 4.5 h 4.5 4.5 v 4.5 4.499998 h -18 -18 v -4.499998 -4.5 h -4.5 -4.5 v 4.5 4.499998 h -4.5 -4.5 v -4.499998 -4.5 h 4.5 4.5 v -4.5 -4.5 h -9 -8.999997 v 9 8.999998 h -4.5 -4.5 v 4.5 4.50001 h -4.500004 -4.5 z M 107.72024,58.252742 v -4.5 h -4.5 -4.5 v 4.5 4.5 h 4.5 4.5 z m 27,-36 v -4.5 h -4.5 -4.5 v 4.5 4.5 h 4.5 4.5 z m -135.0000015,54 v -4.5 h 4.4999995 4.5 v 4.5 4.5 h -4.5 -4.4999995 z m 126.0000015,-13.5 v -9 h 4.5 4.5 v 9 9 h -4.5 -4.5 z m -126.0000015,-31.5 V -0.2472573 h 31.5000005 31.5 v 31.4999993 31.5 h -31.5 -31.5000005 z m 54.0000005,0 v -22.5 h -22.5 -22.500001 v 22.5 22.5 h 22.500001 22.5 z m -36.000001,0 v -13.5 h 13.500001 13.5 v 13.5 13.5 h -13.5 -13.500001 z m 180.000002,0 V -0.2472573 h 31.5 31.5 v 31.4999993 31.5 h -31.5 -31.5 z m 54,0 v -22.5 h -22.5 -22.5 v 22.5 22.5 h 22.5 22.5 z m -36,0 v -13.5 h 13.5 13.5 v 13.5 13.5 h -13.5 -13.5 z"
       id="path177" />
  </g>
</svg>
